A businessman finds he and his friends the prisoners of a sadistic judge and his equally odd family in the backwoods of a bizarre mansion.


Format : AVI
Format/Info : Audio Video Interleave
File size : 803 MiB
Duration : 1h 33mn
Overall bit rate : 1 204 Kbps
Writing application : VirtualDubMod 1.5.4.1 (build 2178/release)
Writing library : VirtualDubMod build 2178/release

Video

Format : MPEG-4 Visual
Format profile : Advanced Simple@L5
Format settings, BVOP : Yes
Format settings, QPel : No
Format settings, GMC : No warppoints
Format settings, Matrix : Custom
Codec ID : XVID
Codec ID/Hint : XviD
Duration : 1h 33mn
Bit rate : 1 085 Kbps
Width : 512 pixels
Height : 384 pixels
Display aspect ratio : 4:3
Frame rate : 23.976 fps
Color space : YUV
Chroma subsampling : 4:2:0
Bit depth : 8 bits
Scan type : Progressive
Compression mode : Lossy
Bits/(Pixel*Frame) : 0.230
Stream size : 724 MiB (90%)
Writing library : XviD 1.2.1 (UTC 2008-12-04)

Audio

Format : MPEG Audio
Format version : Version 1
Format profile : Layer 3
Mode : Joint stereo
Mode extension : MS Stereo
Codec ID : 55
Codec ID/Hint : MP3
Duration : 1h 33mn
Bit rate mode : Constant
Bit rate : 112 Kbps
Channel(s) : 2 channels
Sampling rate : 44.1 KHz
Compression mode : Lossy
Video delay : 10ms
Stream size : 74.7 MiB (9%)
Alignment : Split accross interleaves
Interleave, duration : 83 ms (2.00 video frames)
Interleave, preload duration : 500 ms
Writing library : LAME3.98.2ªª¨Äµ¨™D
Language : English

Please seed & thank you for downloading, comments are appreciated.